<svg xmlns="http://www.w3.org/2000/svg" viewBox="0 0 552.15 939.37"><g id="Layer_9" data-name="Layer 9"><path d="M633.35,21.27H348.54A133.66,133.66,0,0,0,214.88,154.93h0a133.69,133.69,0,0,0,28,81.89l133.5,172.24a133.66,133.66,0,0,1,0,163.77L242.89,745.08a133.67,133.67,0,0,0-28,81.88h0A133.66,133.66,0,0,0,348.54,960.63H633.35A133.66,133.66,0,0,0,767,827h0a133.61,133.61,0,0,0-28-81.88L605.5,572.83a133.69,133.69,0,0,1,0-163.77L739,236.82a133.64,133.64,0,0,0,28-81.89h0A133.66,133.66,0,0,0,633.35,21.27Z" transform="translate(-214.88 -21.27)"/></g></svg>